<svg width="25" height="39" viewBox="0 0 25 39" fill="none" xmlns="http://www.w3.org/2000/svg">
<path d="M9.87891 32V29.9434H6.15234V28.9766L10.0723 23.4102H10.9336V28.9766H12.0938V29.9434H10.9336V32H9.87891ZM9.87891 28.9766V25.1035L7.18945 28.9766H9.87891ZM18.2407 30.9863V32H12.563C12.5552 31.7461 12.5962 31.502 12.686 31.2676C12.8305 30.8809 13.061 30.5 13.3774 30.125C13.6977 29.75 14.1587 29.3164 14.7602 28.8242C15.6938 28.0586 16.3247 27.4531 16.6528 27.0078C16.9809 26.5586 17.145 26.1348 17.145 25.7363C17.145 25.3184 16.9946 24.9668 16.6938 24.6816C16.397 24.3926 16.0083 24.248 15.5278 24.248C15.02 24.248 14.6137 24.4004 14.3091 24.7051C14.0044 25.0098 13.8501 25.4316 13.8462 25.9707L12.7622 25.8594C12.8364 25.0508 13.1157 24.4355 13.6001 24.0137C14.0845 23.5879 14.7348 23.375 15.5512 23.375C16.3755 23.375 17.0278 23.6035 17.5083 24.0605C17.9887 24.5176 18.229 25.084 18.229 25.7598C18.229 26.1035 18.1587 26.4414 18.018 26.7734C17.8774 27.1055 17.643 27.4551 17.3149 27.8223C16.9907 28.1895 16.4497 28.6934 15.6919 29.334C15.0591 29.8652 14.6528 30.2266 14.4731 30.418C14.2934 30.6055 14.145 30.7949 14.0278 30.9863H18.2407Z" fill="white"/>
<path d="M24.3847 10.4214L19.7309 10.3709V7.39666C19.7309 3.46619 16.4517 0.26886 12.4215 0.26886C8.39181 0.26886 5.11341 3.46659 5.11341 7.39666V10.2116L0.628246 10.1627C0.458338 10.1664 0.302106 10.2242 0.184413 10.3382C0.0663063 10.4521 0 10.6073 0 10.769V37.7743C0 38.1093 0.278069 38.3805 0.621615 38.3805H24.3785C24.7221 38.3805 25.0001 38.1093 25.0001 37.7743V11.0281C24.9997 10.6958 24.7254 10.4255 24.3847 10.4214ZM6.35664 7.39666C6.35664 4.13507 9.07724 1.48135 12.4215 1.48135C15.7662 1.48135 18.4877 4.13507 18.4877 7.39666V10.3571L6.35664 10.225V7.39666ZM23.7565 37.168H1.24282V11.3821L5.11341 11.4241V13.24C4.25599 13.5137 3.63023 14.2921 3.63023 15.2188C3.63023 16.3719 4.59208 17.3095 5.77398 17.3095C6.95587 17.3095 7.91772 16.3715 7.91772 15.2188C7.91772 14.2642 7.25425 13.4656 6.35622 13.2162V11.4379L18.4873 11.57V13.2283C17.6095 13.4902 16.9651 14.2783 16.9651 15.2188C16.9651 16.3719 17.927 17.3095 19.1089 17.3095C20.2908 17.3095 21.2526 16.3715 21.2526 15.2188C21.2526 14.2783 20.6082 13.4898 19.7305 13.2283V11.5838L23.7561 11.6278V37.168H23.7565ZM5.77398 14.3406C6.27044 14.3406 6.67449 14.7346 6.67449 15.2188C6.67449 15.703 6.27044 16.0971 5.77398 16.0971C5.27751 16.0971 4.87346 15.703 4.87346 15.2188C4.87346 14.7346 5.27751 14.3406 5.77398 14.3406ZM19.1093 14.3406C19.6057 14.3406 20.0098 14.7346 20.0098 15.2188C20.0098 15.703 19.6057 16.0971 19.1093 16.0971C18.6128 16.0971 18.2088 15.703 18.2088 15.2188C18.2088 14.7346 18.6128 14.3406 19.1093 14.3406Z" fill="white"/>
</svg>
