<svg width="32" height="37" viewBox="0 0 32 37" fill="none" xmlns="http://www.w3.org/2000/svg">
<path d="M19.0466 14.7437C18.8045 14.5349 18.4353 14.557 18.2212 14.794L10.1151 23.7682C9.90142 24.0048 9.92442 24.366 10.1665 24.5748C10.2777 24.6708 10.4157 24.7177 10.5533 24.7177C10.7151 24.7177 10.8765 24.6526 10.9919 24.5245L19.0981 15.5503C19.3117 15.3137 19.2887 14.9529 19.0466 14.7437Z" fill="white"/>
<path d="M11.6554 18.6232C12.3127 18.3489 12.8219 17.8402 13.0893 17.1917C13.3568 16.5425 13.3494 15.8308 13.0695 15.1873C12.7891 14.5434 12.2686 14.0446 11.6051 13.7836C10.2362 13.2437 8.67124 13.8949 8.11567 15.2356C7.84821 15.8849 7.8564 16.597 8.13906 17.2413C8.42094 17.8848 8.9426 18.3828 9.60617 18.6438C9.92938 18.771 10.2674 18.8343 10.6054 18.8343C10.9614 18.8346 11.3177 18.7642 11.6554 18.6232ZM9.21395 16.7917C9.05488 16.4286 9.0502 16.0278 9.20031 15.6639C9.43891 15.0878 10.0074 14.7369 10.6058 14.7369C10.793 14.7369 10.9836 14.7712 11.1676 14.844C11.5419 14.991 11.8347 15.2718 11.993 15.6346C12.1513 15.9973 12.1548 16.3985 12.0039 16.7643C11.853 17.1304 11.5661 17.4169 11.1957 17.5716C10.8249 17.7259 10.4159 17.7301 10.0428 17.5834C9.66777 17.4363 9.37341 17.1548 9.21395 16.7917Z" fill="white"/>
<path d="M31.4139 15.9828C31.4096 15.8311 31.3433 15.6875 31.2303 15.5831C31.1176 15.4791 30.9706 15.4231 30.8112 15.4276L27.4495 15.5278L28.2083 13.1942C28.2551 13.0498 28.2414 12.8928 28.1701 12.7583C28.0987 12.6234 27.9755 12.5221 27.8277 12.4763L22.275 10.7523L21.3287 0.787411C21.3006 0.493654 21.0149 0.26886 20.7127 0.26886C20.4686 0.26886 20.2503 0.417072 20.1649 0.640342L16.9312 9.09338L7.28849 6.09904C6.98204 6.00417 6.6522 6.1699 6.55395 6.4709L0.0276276 26.5416C-0.070234 26.8426 0.100147 27.1638 0.408157 27.2594L10.8868 30.5136L11.0419 35.8706C11.0509 36.1803 11.311 36.4261 11.6264 36.4261C11.6322 36.4261 11.6377 36.4261 11.6431 36.4261L31.4034 35.8816C31.5582 35.8774 31.7052 35.8131 31.812 35.7029C31.9184 35.5928 31.9757 35.4458 31.9715 35.2941L31.4139 15.9828ZM20.3938 3.30701L21.0648 10.3762L18.0474 9.43933L20.3938 3.30701ZM7.49201 7.36132L26.9166 13.3927L20.7447 32.3748L1.31971 26.3427L7.49201 7.36132ZM12.1948 35.2659L12.0677 30.8794L20.9478 33.6371C21.0055 33.655 21.0651 33.6638 21.1248 33.6638C21.2176 33.6638 21.31 33.6421 21.3934 33.5998C21.5315 33.5301 21.6352 33.4097 21.682 33.2653L27.0737 16.6827L30.2606 16.5874L30.7854 34.7539L12.1948 35.2659Z" fill="white"/>
<path d="M18.6622 21.5981C17.9983 21.3364 17.2691 21.3429 16.6094 21.6176C15.9505 21.8919 15.4401 22.4001 15.1727 23.0494C14.9052 23.6979 14.913 24.4096 15.1941 25.0535C15.4752 25.6974 15.9965 26.1957 16.6605 26.456C16.9841 26.5836 17.3233 26.6472 17.6618 26.6472C18.0177 26.6472 18.3733 26.5768 18.7102 26.4365C19.3691 26.1626 19.8791 25.654 20.1466 25.0043C20.414 24.3551 20.4066 23.6434 20.1267 23.0006C19.8467 22.3571 19.3262 21.8591 18.6622 21.5981ZM19.0619 24.5776C18.9114 24.9434 18.624 25.2299 18.2529 25.3846C17.8821 25.5393 17.4723 25.5427 17.0972 25.3952C16.7225 25.2486 16.4289 24.9678 16.2702 24.6047C16.1119 24.2419 16.1077 23.8411 16.2582 23.4761C16.4087 23.1103 16.6964 22.8234 17.068 22.6688C17.2582 22.5895 17.4586 22.5499 17.6594 22.5499C17.8509 22.5499 18.0423 22.5861 18.2256 22.6581C18.5999 22.8052 18.8931 23.086 19.051 23.4479C19.2085 23.8103 19.2124 24.2115 19.0619 24.5776Z" fill="white"/>
</svg>
