<svg width="16" height="16" viewBox="0 0 16 16" fill="none" xmlns="http://www.w3.org/2000/svg">
<path d="M11.8373 0C10.1125 0 8.62937 1.09681 8 2.65479C7.3702 1.09681 5.8864 0 4.16078 0C1.86662 0 0 1.93959 0 4.32381C0 5.24389 0.285883 6.1309 0.834005 6.89883L7.74829 15.8744C7.80955 15.9537 7.90198 16 8 16H8.00021C8.09823 16 8.19088 15.9535 8.25192 15.874L15.3158 6.67227C15.3225 6.66333 15.3291 6.65395 15.3352 6.64434C15.77 5.94009 16 5.13754 16 4.32381C16.0002 1.93959 14.1325 0 11.8373 0ZM14.8014 6.26809L7.99957 15.1284L1.34451 6.48973C0.886668 5.84782 0.644634 5.09888 0.644634 4.32381C0.644634 2.30914 2.22194 0.670288 4.16057 0.670288C6.09984 0.670288 7.67757 2.30914 7.67757 4.32381C7.67757 4.50903 7.82181 4.65895 8 4.65895C8.17819 4.65895 8.32242 4.50903 8.32242 4.32381C8.32242 2.30914 9.89908 0.670288 11.8373 0.670288C13.777 0.670288 15.3554 2.30914 15.3554 4.32381C15.3554 5.0037 15.1638 5.67555 14.8014 6.26809Z" fill="#757575"/>
</svg>
