<svg width="33" height="27" viewBox="0 0 33 27" fill="none" xmlns="http://www.w3.org/2000/svg">
<path d="M30.019 13.592C31.4545 12.1765 32.2448 10.2638 32.2448 8.2062C32.2448 3.79189 28.4269 0.200531 23.7338 0.200531C20.4532 0.200531 17.5189 1.97329 16.109 4.66231C14.6877 2.00235 11.7643 0.249638 8.51094 0.249638C3.81786 0.249638 0 3.841 0 8.2553C0 10.3055 0.777643 12.2051 2.18971 13.6039C5.43303 16.8163 15.5901 26.1311 15.6927 26.2248C15.8133 26.3353 15.9679 26.3909 16.1224 26.3909C16.2777 26.3909 16.4327 26.3349 16.5537 26.2236C16.655 26.1294 26.7711 16.793 30.019 13.592ZM16.1211 24.9333C14.1433 23.1171 5.92801 15.5583 3.08419 12.7416C1.90537 11.5741 1.25629 9.981 1.25629 8.2553C1.25629 4.51785 4.5105 1.47731 8.51094 1.47731C11.7848 1.47731 14.6634 3.54349 15.5106 6.50137C15.5864 6.76654 15.8338 6.94988 16.1153 6.94988C16.1161 6.94988 16.1165 6.94988 16.1173 6.94988C16.4 6.94906 16.6471 6.76368 16.7212 6.49727C17.5529 3.5128 20.4365 1.42821 23.7338 1.42821C27.7343 1.42821 30.9885 4.46875 30.9885 8.2062C30.9885 9.93804 30.3272 11.5438 29.1266 12.7273C26.2765 15.5366 18.0918 23.1118 16.1211 24.9333Z" fill="white"/>
<path d="M5.88005 4.87428C5.63089 4.63898 5.23307 4.64552 4.99186 4.88942C3.08735 6.81687 3.08735 9.95317 4.99186 11.8806C5.11498 12.0054 5.27913 12.068 5.4437 12.068C5.60074 12.068 5.75819 12.0108 5.88005 11.8958C6.12963 11.66 6.13633 11.2717 5.89554 11.0278C4.45543 9.57055 4.45543 7.1995 5.89554 5.74225C6.13633 5.49835 6.12963 5.10999 5.88005 4.87428Z" fill="white"/>
</svg>
