<svg width="259" height="52" viewBox="0 0 259 52" fill="none" xmlns="http://www.w3.org/2000/svg">
<g filter="url(#filter0_d)">
<path d="M9.13703 34.8126H4V0.779729H9.13703V20.7775L19.0442 10.4117H25.6489L16.3839 20.0895L26.3369 34.8126H20.0991L12.8522 24.1257L9.13703 27.8868V34.8126Z" fill="white"/>
<path d="M43.5852 23.6212V10.4117H48.7222V34.8126H43.5852V30.3635C42.7596 31.8618 41.6129 33.0391 40.1452 33.8953C38.7081 34.7514 37.1486 35.1795 35.4668 35.1795C32.7149 35.1795 30.4827 34.3386 28.7703 32.6569C27.0886 30.9751 26.2477 28.5442 26.2477 25.3641V10.4117H31.3847V23.8046C31.3847 28.2996 33.25 30.547 36.9804 30.547C38.7539 30.547 40.2981 29.966 41.6129 28.8041C42.9278 27.6116 43.5852 25.8839 43.5852 23.6212Z" fill="white"/>
<path d="M65.1187 10.0447C68.3905 10.0447 71.1884 11.1761 73.5123 13.4388C75.8362 15.7016 76.9981 18.7135 76.9981 22.4745C76.9981 26.2356 75.8362 29.2933 73.5123 31.6478C71.219 34.0023 68.5281 35.1795 65.4398 35.1795C62.382 35.1795 59.63 33.8341 57.1838 31.1433V43.7107H52.0468V10.4117H57.1838V14.6772C59.202 11.5889 61.8469 10.0447 65.1187 10.0447ZM57.0921 22.658C57.0921 24.9819 57.7954 26.893 59.202 28.3913C60.6085 29.859 62.3209 30.5929 64.339 30.5929C66.3571 30.5929 68.1153 29.859 69.6136 28.3913C71.1119 26.9236 71.8611 25.0278 71.8611 22.7039C71.8611 20.3494 71.1272 18.4077 69.6595 16.8788C68.1918 15.3194 66.4336 14.5396 64.3849 14.5396C62.3362 14.5396 60.6085 15.3194 59.202 16.8788C57.7954 18.4077 57.0921 20.3341 57.0921 22.658Z" fill="white"/>
<path d="M83.8723 34.8126H78.7353V10.4117H83.8723V34.8126ZM79.0564 5.54983C78.4142 4.9077 78.0932 4.14326 78.0932 3.25651C78.0932 2.36976 78.4142 1.60533 79.0564 0.963195C79.6985 0.321065 80.4629 0 81.3497 0C82.2364 0 83.0009 0.321065 83.643 0.963195C84.2851 1.60533 84.6062 2.36976 84.6062 3.25651C84.6062 4.14326 84.2851 4.9077 83.643 5.54983C83.0009 6.19196 82.2364 6.51303 81.3497 6.51303C80.4629 6.51303 79.6985 6.19196 79.0564 5.54983Z" fill="white"/>
<path d="M86.7809 23.5295V18.7135H102.009V23.5295H86.7809Z" fill="white"/>
<path d="M115.704 35.1795C112.309 35.1795 109.389 34.0328 106.943 31.7395C104.497 29.4156 103.274 26.3885 103.274 22.658C103.274 18.9275 104.543 15.9003 107.081 13.5764C109.649 11.222 112.768 10.0447 116.437 10.0447C120.107 10.0447 123.21 11.3137 125.748 13.8516L122.721 17.5668C120.611 15.7322 118.486 14.8148 116.346 14.8148C114.205 14.8148 112.34 15.5334 110.75 16.9706C109.191 18.3771 108.411 20.2118 108.411 22.4745C108.411 24.7067 109.191 26.6025 110.75 28.162C112.309 29.7214 114.221 30.5011 116.483 30.5011C118.777 30.5011 120.932 29.4615 122.95 27.3822L125.978 30.6846C123.012 33.6812 119.587 35.1795 115.704 35.1795Z" fill="white"/>
<path d="M132.315 21.6031V34.8126H127.178V0.825595H132.315V14.8607C133.049 13.3624 134.15 12.1852 135.617 11.329C137.116 10.4728 138.721 10.0447 140.433 10.0447C143.185 10.0447 145.402 10.8856 147.084 12.5674C148.796 14.2492 149.653 16.6801 149.653 19.8601V34.8126H144.516V21.4196C144.516 16.9247 142.65 14.6772 138.92 14.6772C137.146 14.6772 135.602 15.2735 134.287 16.466C132.973 17.628 132.315 19.3403 132.315 21.6031Z" fill="white"/>
<path d="M175.406 24.8596H156.28C156.402 26.6331 157.212 28.0702 158.71 29.171C160.209 30.2412 161.921 30.7763 163.848 30.7763C166.905 30.7763 169.229 29.8131 170.819 27.8868L173.755 31.0974C171.125 33.8188 167.7 35.1795 163.481 35.1795C160.056 35.1795 157.136 34.0481 154.72 31.7854C152.335 29.4921 151.143 26.4343 151.143 22.6121C151.143 18.7593 152.366 15.7016 154.812 13.4388C157.258 11.1761 160.132 10.0447 163.435 10.0447C166.768 10.0447 169.596 11.0538 171.92 13.0719C174.244 15.0595 175.406 17.8114 175.406 21.3279V24.8596ZM156.28 20.8233H170.269C170.269 18.7746 169.627 17.1999 168.342 16.0991C167.058 14.9983 165.468 14.4479 163.572 14.4479C161.707 14.4479 160.025 15.0289 158.527 16.1908C157.029 17.3222 156.28 18.8664 156.28 20.8233Z" fill="white"/>
<path d="M182.064 21.6031V34.8126H176.927V0.825595H182.064V14.8607C182.798 13.3624 183.899 12.1852 185.366 11.329C186.865 10.4728 188.47 10.0447 190.182 10.0447C192.934 10.0447 195.151 10.8856 196.833 12.5674C198.545 14.2492 199.401 16.6801 199.401 19.8601V34.8126H194.264V21.4196C194.264 16.9247 192.399 14.6772 188.669 14.6772C186.895 14.6772 185.351 15.2735 184.036 16.466C182.721 17.628 182.064 19.3403 182.064 21.6031Z" fill="white"/>
<path d="M208.138 28.3913C209.606 29.859 211.456 30.5929 213.688 30.5929C215.92 30.5929 217.755 29.859 219.192 28.3913C220.66 26.893 221.394 24.9666 221.394 22.6121C221.394 20.2576 220.66 18.3465 219.192 16.8788C217.755 15.3805 215.92 14.6314 213.688 14.6314C211.456 14.6314 209.606 15.3805 208.138 16.8788C206.701 18.3465 205.983 20.2576 205.983 22.6121C205.983 24.9666 206.701 26.893 208.138 28.3913ZM222.861 31.5561C220.415 33.9717 217.357 35.1795 213.688 35.1795C210.019 35.1795 206.961 33.9717 204.515 31.5561C202.069 29.1099 200.846 26.1285 200.846 22.6121C200.846 19.0957 202.069 16.1297 204.515 13.714C206.961 11.2678 210.019 10.0447 213.688 10.0447C217.357 10.0447 220.415 11.2678 222.861 13.714C225.308 16.1297 226.531 19.0957 226.531 22.6121C226.531 26.1285 225.308 29.1099 222.861 31.5561Z" fill="white"/>
<path d="M233.381 34.8126H228.244V0.779729H233.381V34.8126Z" fill="white"/>
</g>
<path d="M259 26.5713C259 31.123 255.31 34.8129 250.758 34.8129C246.206 34.8129 242.517 31.123 242.517 26.5713C242.517 22.0196 246.206 18.3297 250.758 18.3297C255.31 18.3297 259 22.0196 259 26.5713Z" fill="#E21E22"/>
<path d="M249.454 25.101C248.938 25.101 248.55 25.2687 248.289 25.6041C248.028 25.9395 247.898 26.3898 247.898 26.955V29.0792H246.854V24.1227H247.898V25.1196C248.066 24.809 248.292 24.5544 248.578 24.3556C248.87 24.1569 249.177 24.0544 249.5 24.0482L249.51 25.101C249.491 25.101 249.472 25.101 249.454 25.101Z" fill="white"/>
<path d="M254.023 26.8059V24.1227H255.067V29.0792H254.023V28.1754C253.856 28.4798 253.623 28.7189 253.325 28.8928C253.033 29.0667 252.716 29.1537 252.374 29.1537C251.815 29.1537 251.362 28.9829 251.014 28.6413C250.672 28.2997 250.502 27.8059 250.502 27.1599V24.1227H251.545V26.8432C251.545 27.7562 251.924 28.2127 252.682 28.2127C253.042 28.2127 253.356 28.0947 253.623 27.8587C253.89 27.6164 254.023 27.2655 254.023 26.8059Z" fill="white"/>
<defs>
<filter id="filter0_d" x="0" y="0" width="237.381" height="51.7107" filterUnits="userSpaceOnUse" color-interpolation-filters="sRGB">
<feFlood flood-opacity="0" result="BackgroundImageFix"/>
<feColorMatrix in="SourceAlpha" type="matrix" values="0 0 0 0 0 0 0 0 0 0 0 0 0 0 0 0 0 0 127 0"/>
<feOffset dy="4"/>
<feGaussianBlur stdDeviation="2"/>
<feColorMatrix type="matrix" values="0 0 0 0 0 0 0 0 0 0 0 0 0 0 0 0 0 0 0.25 0"/>
<feBlend mode="normal" in2="BackgroundImageFix" result="effect1_dropShadow"/>
<feBlend mode="normal" in="SourceGraphic" in2="effect1_dropShadow" result="shape"/>
</filter>
</defs>
</svg>
