<svg width="14" height="16" viewBox="0 0 14 16" fill="none" xmlns="http://www.w3.org/2000/svg">
<path d="M13.7014 0.0121917H6.6284C6.51891 -0.0195979 6.39528 0.0110286 6.31605 0.101164L3.7621 3.00331H2.36C2.19497 3.00331 2.06139 3.13338 2.06139 3.29407V5.16636C2.06139 5.32705 2.19497 5.45712 2.36 5.45712H3.5684V12.1131L0.0873448 15.5038C-0.0291149 15.6174 -0.0291149 15.8015 0.0873448 15.9149C0.145674 15.9717 0.222119 16 0.298565 16C0.37501 16 0.451456 15.9717 0.509785 15.9149L3.5684 12.9358V15.7092C3.5684 15.8697 3.70198 16 3.86701 16C4.03204 16 4.16562 15.8697 4.16562 15.7092V12.9372L7.22284 15.9149C7.28117 15.9717 7.35762 16 7.43406 16C7.51051 16 7.58695 15.9717 7.64528 15.9149C7.76194 15.8015 7.76194 15.6174 7.64528 15.5038L4.16562 12.1147V5.74536L6.31465 7.49533C6.32799 7.50619 6.34372 7.51142 6.35825 7.51956C6.40723 7.55368 6.46675 7.57442 6.53165 7.57442H13.7014C13.8662 7.57442 14 7.44435 14 7.28366V0.30295C14 0.142257 13.8662 0.0121917 13.7014 0.0121917ZM2.65862 3.58483H3.5684V4.8756H2.65862V3.58483ZM4.16562 3.43848L6.23303 1.08935V6.67093L4.16562 4.98745V3.43848ZM13.4028 6.9929H6.83026V0.593707H13.4028V6.9929Z" fill="black"/>
</svg>
