<svg width="20" height="10" viewBox="0 0 20 10" fill="none" xmlns="http://www.w3.org/2000/svg">
<path d="M19.6544 2.84889H17.3499V0.346693C17.3499 0.155318 17.1953 0 17.0043 0H0.34555C0.154576 0 0 0.155318 0 0.346693V9.65331C0 9.84468 0.154576 10 0.34555 10H17.0043C17.1953 10 17.3499 9.84468 17.3499 9.65331V7.15088H19.6544C19.8454 7.15088 20 6.99556 20 6.80419V3.19558C20 3.00421 19.8452 2.84889 19.6544 2.84889ZM16.6585 9.00615L8.37315 0.693385H16.6585V9.00615ZM9.9537 9.30661L1.36884 0.693385H7.39593L15.9808 9.30661H9.9537ZM0.690871 0.993621L8.97648 9.30661H0.690871V0.993621ZM19.3089 6.45749H17.3499V3.54227H19.3089V6.45749Z" fill="black"/>
</svg>
