<svg width="19" height="15" viewBox="0 0 19 15" fill="none" xmlns="http://www.w3.org/2000/svg">
<path d="M15.0888 9.58564H13.8727L11.1939 3.68357C11.1434 3.57176 11.0238 3.49881 10.8908 3.49881C7.17358 3.49881 6.13382 0.350566 6.09161 0.21703C6.05968 0.114985 5.9711 0.036259 5.85868 0.00955187C5.74582 -0.0169559 5.62662 0.0125415 5.54417 0.0876801L1.37639 3.88567L0.103924 4.97149C0.0389663 5.0269 0.0013479 5.10403 3.5623e-05 5.18515C-0.00127665 5.26626 0.0337172 5.34459 0.0967063 5.40179L10.6006 14.9131C10.662 14.9687 10.7451 15 10.832 15H18.6719C18.853 15 19 14.8661 19 14.701V13.1502C19.0002 11.1845 17.2457 9.58564 15.0888 9.58564ZM5.65068 0.836076C6.1161 1.8059 7.51346 3.99509 10.6701 4.09314L11.2018 5.26487H9.425C9.24391 5.26487 9.09693 5.3988 9.09693 5.56383C9.09693 5.72885 9.24391 5.86279 9.425 5.86279H11.428C11.4428 5.86279 11.4571 5.8606 11.4713 5.8588L11.9122 6.83042H10.0059C9.82481 6.83042 9.67783 6.96436 9.67783 7.12938C9.67783 7.29441 9.82481 7.42834 10.0059 7.42834H12.0089C12.0662 7.42834 12.1193 7.41379 12.1661 7.39007L12.6226 8.39558H10.7425C10.5614 8.39558 10.4145 8.52951 10.4145 8.69454C10.4145 8.85956 10.5614 8.9935 10.7425 8.9935H12.7457C12.7943 8.9935 12.84 8.98333 12.8815 8.96599L13.3502 9.9988C13.4008 10.1106 13.5204 10.1836 13.6534 10.1836H15.0886C16.7726 10.1836 18.1619 11.3551 18.3272 12.8507L11.7278 12.8433L2.06862 4.10032L5.65068 0.836076ZM18.3441 14.4019H10.9674L0.800741 5.19611L1.59751 4.51647L11.3617 13.3543C11.4229 13.4097 11.5058 13.441 11.5924 13.4412L18.3443 13.4488L18.3441 14.4019Z" fill="black"/>
</svg>
