<svg width="17" height="15" viewBox="0 0 17 15" fill="none" xmlns="http://www.w3.org/2000/svg">
<path d="M10.9997 6.91779C11.1249 6.67411 11.0212 6.37874 10.7679 6.25806C10.5146 6.13738 10.2078 6.23709 10.0825 6.48077C9.95725 6.72445 10.061 7.01983 10.3143 7.14051C10.5676 7.26118 10.8744 7.16147 10.9997 6.91779Z" fill="black"/>
<path d="M13.046 6.91932C13.1712 6.67564 13.0674 6.38026 12.8142 6.25958C12.5609 6.13891 12.254 6.23862 12.1288 6.4823C12.0035 6.72598 12.1073 7.02135 12.3606 7.14203C12.6138 7.26271 12.9207 7.163 13.046 6.91932Z" fill="black"/>
<path d="M11.5 5C11.7761 5 12 4.77614 12 4.5C12 4.22386 11.7761 4 11.5 4C11.2239 4 11 4.22386 11 4.5C11 4.77614 11.2239 5 11.5 5Z" fill="black"/>
<path d="M16.6664 6.72681L15.5636 2.18346C15.4812 1.88514 15.3078 1.61508 15.0641 1.4055C14.8204 1.19593 14.5166 1.0557 14.1891 1.00157C14.1678 0.99949 14.1462 0.99949 14.1249 1.00157H12.3027C11.9357 1.00157 11.6455 1.3642 11.3159 1.96089H5.68336C5.38484 1.42367 5.09254 1.00157 4.69659 1.00157H2.87436C2.853 0.999476 2.83146 0.999476 2.8101 1.00157C2.48365 1.05512 2.18064 1.19421 1.93702 1.40233C1.69341 1.61046 1.51941 1.87889 1.43566 2.17578L0.330718 6.72681C0.00696336 8.05814 -0.0798643 9.42944 0.0736583 10.7867L0.169019 11.6251C0.169279 11.9614 0.276315 12.2901 0.476821 12.5705C0.677326 12.8509 0.962456 13.0706 1.29676 13.2022C1.48482 13.2714 1.68524 13.3071 1.88759 13.3078C2.12495 13.3033 2.35898 13.2552 2.57607 13.1662C2.79316 13.0773 2.98899 12.9493 3.15216 12.7897C3.16599 12.7768 3.17848 12.7626 3.18947 12.7475L5.33302 9.82734H7.84764C7.46205 10.4029 7.22572 11.2337 7.94715 12.0261C8.94844 13.137 9.32573 13.6569 9.32573 14.7122C9.32573 14.7885 9.3585 14.8617 9.41681 14.9157C9.47513 14.9697 9.55422 15 9.63669 15C9.71916 15 9.79826 14.9697 9.85657 14.9157C9.91489 14.8617 9.94765 14.7885 9.94765 14.7122C9.94765 13.4708 9.48329 12.8262 8.42395 11.6424C7.71496 10.8557 8.38456 10.0576 8.63126 9.81199H11.6662L13.8181 12.7437C13.829 12.7588 13.8415 12.7729 13.8554 12.7859C14.0845 13.0186 14.3839 13.1823 14.7146 13.2558C15.0454 13.3293 15.3924 13.3093 15.7108 13.1984C16.0451 13.0668 16.3302 12.8471 16.5307 12.5667C16.7312 12.2863 16.8382 11.9575 16.8385 11.6213L16.9277 10.7867C17.0798 9.42923 16.9916 8.05793 16.6664 6.72681ZM16.3057 10.7233L16.2104 11.5714C16.2104 11.5714 16.2104 11.5848 16.2104 11.5906C16.2147 11.8159 16.1475 12.0375 16.017 12.2278C15.8866 12.4181 15.6986 12.5688 15.4765 12.6612C15.2756 12.7295 15.0572 12.7408 14.8493 12.6936C14.6414 12.6465 14.4534 12.543 14.3094 12.3964L12.0871 9.37837C12.0586 9.33945 12.0203 9.30756 11.9755 9.28549C11.9307 9.26341 11.8808 9.25183 11.83 9.25174H5.16717C5.11641 9.25183 5.06644 9.26341 5.02164 9.28549C4.97683 9.30756 4.93854 9.33945 4.91011 9.37837L2.69194 12.3964C2.54776 12.5434 2.35942 12.6471 2.15108 12.6943C1.94275 12.7415 1.72393 12.7299 1.52273 12.6612C1.30027 12.5687 1.1121 12.4177 0.98162 12.227C0.85114 12.0363 0.78411 11.8143 0.788865 11.5887C0.788865 11.5887 0.788865 11.5752 0.788865 11.5695L0.693504 10.7214C0.547287 9.42836 0.629912 8.12188 0.938125 6.85344L2.04307 2.30625C2.09925 2.12215 2.21 1.95628 2.36278 1.82742C2.51556 1.69857 2.70426 1.61188 2.90753 1.57717H4.66756C4.77536 1.63856 4.95779 1.90717 5.21071 2.37724C5.23648 2.42503 5.27612 2.46523 5.32518 2.49336C5.37424 2.52148 5.43079 2.53641 5.4885 2.53649H11.5004C11.5587 2.5366 11.6158 2.52154 11.6653 2.49305C11.7148 2.46455 11.7546 2.42376 11.7802 2.37532C12.1078 1.75944 12.2633 1.60786 12.3234 1.57717H14.0834C14.2873 1.61171 14.4766 1.69854 14.6298 1.82777C14.783 1.95701 14.8939 2.12346 14.95 2.30817L16.059 6.85344C16.3682 8.1224 16.4515 9.42954 16.3057 10.7233Z" fill="black"/>
<path d="M4.5 4C4.20333 4 3.91332 4.08797 3.66665 4.2528C3.41997 4.41762 3.22771 4.65189 3.11418 4.92597C3.00065 5.20006 2.97094 5.50166 3.02882 5.79263C3.0867 6.08361 3.22956 6.35088 3.43934 6.56066C3.64912 6.77044 3.91639 6.9133 4.20737 6.97118C4.49834 7.02905 4.79994 6.99935 5.07403 6.88582C5.34811 6.77229 5.58238 6.58003 5.7472 6.33336C5.91203 6.08668 6 5.79667 6 5.5C5.99947 5.10234 5.84127 4.72111 5.56008 4.43992C5.27889 4.15873 4.89766 4.00053 4.5 4ZM4.5 6.4C4.322 6.4 4.14799 6.34722 3.99999 6.24832C3.85198 6.14943 3.73663 6.00887 3.66851 5.84441C3.60039 5.67996 3.58257 5.499 3.61729 5.32442C3.65202 5.14984 3.73774 4.98947 3.8636 4.8636C3.98947 4.73774 4.14984 4.65202 4.32442 4.61729C4.499 4.58257 4.67996 4.60039 4.84441 4.66851C5.00887 4.73663 5.14943 4.85198 5.24832 4.99999C5.34722 5.14799 5.4 5.322 5.4 5.5C5.4 5.61819 5.37672 5.73522 5.33149 5.84441C5.28626 5.95361 5.21997 6.05282 5.1364 6.1364C5.05282 6.21997 4.95361 6.28626 4.84441 6.33149C4.73522 6.37672 4.61819 6.4 4.5 6.4Z" fill="black"/>
<path d="M12.3084 1H14.6916C14.7734 1 14.8518 0.947322 14.9097 0.853553C14.9675 0.759785 15 0.632608 15 0.5C15 0.367392 14.9675 0.240215 14.9097 0.146447C14.8518 0.0526784 14.7734 0 14.6916 0H12.3084C12.2266 0 12.1482 0.0526784 12.0903 0.146447C12.0325 0.240215 12 0.367392 12 0.5C12 0.632608 12.0325 0.759785 12.0903 0.853553C12.1482 0.947322 12.2266 1 12.3084 1Z" fill="black"/>
<path d="M2.30843 1H4.69157C4.77337 1 4.85182 0.947322 4.90966 0.853553C4.9675 0.759785 5 0.632608 5 0.5C5 0.367392 4.9675 0.240215 4.90966 0.146447C4.85182 0.0526784 4.77337 0 4.69157 0H2.30843C2.22663 0 2.14818 0.0526784 2.09034 0.146447C2.0325 0.240215 2 0.367392 2 0.5C2 0.632608 2.0325 0.759785 2.09034 0.853553C2.14818 0.947322 2.22663 1 2.30843 1Z" fill="black"/>
</svg>
