<svg width="16" height="20" viewBox="0 0 16 20" fill="none" xmlns="http://www.w3.org/2000/svg">
<path d="M15.6723 3.07536C15.6481 3.06725 15.6227 3.06071 15.5962 3.05824C12.8601 2.79106 10.6632 2.19972 8.16927 0.0803338C8.02942 -0.0381605 7.81781 -0.0239683 7.69619 0.112323C7.68927 0.119982 7.68719 0.129894 7.68119 0.138004C5.20733 2.2245 3.02078 2.81134 0.302309 3.07648C0.295847 3.07716 0.290078 3.07919 0.283847 3.08009C0.273232 3.08167 0.262847 3.08369 0.252693 3.08617C0.241386 3.0891 0.230539 3.09225 0.219693 3.09608C0.20977 3.09969 0.200309 3.10352 0.190847 3.10802C0.180693 3.11275 0.17077 3.11793 0.161308 3.12379C0.152308 3.1292 0.14377 3.13483 0.135462 3.14091C0.126693 3.14722 0.118616 3.15398 0.110539 3.16096C0.102462 3.16817 0.0948465 3.1756 0.0874619 3.18371C0.0807696 3.19115 0.0743081 3.19858 0.0680773 3.20647C0.0611542 3.21548 0.0546925 3.22494 0.0486924 3.23463C0.0436155 3.24274 0.039231 3.25085 0.0348463 3.25941C0.0295386 3.26999 0.0249231 3.28058 0.021 3.29162C0.0177692 3.30063 0.0147693 3.30964 0.0124616 3.31888C0.00946156 3.33037 0.00692296 3.34186 0.0050768 3.3538C0.00369218 3.36348 0.00253843 3.37317 0.00207689 3.38308C0.00161535 3.38962 0 3.3957 0 3.40223V11.8176C0 11.8466 0.00392301 11.8753 0.0117692 11.9032C1.51155 17.3019 7.56188 19.8675 7.81873 19.9739C7.86073 19.9912 7.90527 20 7.94981 20C7.99388 20 8.03819 19.9914 8.07973 19.9745C8.33935 19.8678 14.4594 17.3026 15.9589 11.9032C15.9638 11.8861 15.967 11.8687 15.9688 11.8509L15.9982 11.5707C15.9993 11.5596 16 11.5484 16 11.5376V3.40201C16 3.22381 15.8539 3.07941 15.6723 3.07536ZM15.3045 11.7577C13.9967 16.4087 8.84058 18.9126 7.9505 19.3138C7.06826 18.9122 1.98739 16.4188 0.670619 11.7737V3.69554C3.32332 3.40921 5.51149 2.77845 7.96019 0.763591C10.4315 2.78903 12.6388 3.40719 15.3294 3.68833V11.5207L15.3045 11.7577Z" fill="black"/>
</svg>
