<svg width="15" height="15" viewBox="0 0 15 15" fill="none" xmlns="http://www.w3.org/2000/svg">
<path d="M14.6772 0H0.32284C0.144417 0 0 0.148688 0 0.332388V6.58682C0 6.77052 0.144417 6.91921 0.32284 6.91921H1.42975V14.6676C1.42975 14.8511 1.57417 15 1.75259 15H13.3847C13.5629 15 13.7076 14.8511 13.7076 14.6676V6.91921H14.6772C14.8554 6.91921 15 6.77052 15 6.58682V0.332388C15 0.148688 14.8554 0 14.6772 0ZM13.0619 14.3352H2.07543V6.91921H5.54316C5.65099 6.91921 5.75193 6.86381 5.81176 6.77118L7.56866 4.05868L9.32555 6.77118C9.38538 6.86359 9.48633 6.91921 9.59415 6.91921H13.0617V14.3352H13.0619ZM14.3543 6.25443H9.76698L7.83726 3.27513C7.71738 3.0901 7.41972 3.09032 7.30005 3.27513L5.37033 6.25443H0.64568V0.664776H14.3543V6.25443Z" fill="black"/>
<path d="M9.64332 8H6.35644C6.15945 8 6 8.14145 6 8.31574V12.6843C6 12.8586 6.15945 13 6.35644 13H9.64356C9.84031 13 10 12.8586 10 12.6843V8.31574C9.99976 8.14145 9.84008 8 9.64332 8ZM9.28688 12.3685H6.71289V8.63147H9.28711V12.3685H9.28688Z" fill="black"/>
</svg>
