<svg width="21" height="20" viewBox="0 0 21 20" fill="none" xmlns="http://www.w3.org/2000/svg">
<path d="M21 14.1093C21 14.0674 20.9917 14.0276 20.9792 13.9898V8.90715C20.9792 8.6928 20.8044 8.5193 20.589 8.5193C20.3736 8.5193 20.1988 8.6928 20.1988 8.90715V13.7217H15.1263L12.8627 9.86644L17.3386 7.44831C18.7021 6.71346 19.3501 5.26883 18.7828 4.22706L17.0046 0.978923C16.7746 0.556939 16.3816 0.254155 15.8684 0.10341C15.1427 -0.109909 14.2798 0.0103249 13.505 0.431533L1.50647 6.80008C1.38838 6.86291 1.28043 6.99064 1.27081 7.12329C1.26118 7.25593 1.28693 7.35755 1.37199 7.50674L1.94998 8.60437L0.220709 9.43334C0.127327 9.47807 0.0557942 9.55771 0.0217187 9.65493C-0.0123568 9.75215 -0.00611395 9.85868 0.0388865 9.95125L1.29318 12.5318C1.36055 12.6704 1.49971 12.751 1.64486 12.751C1.70156 12.751 1.75931 12.7386 1.81367 12.7128L3.59236 11.8621C3.61239 11.8525 3.63034 11.8406 3.64777 11.8285L3.88656 12.2817C4.11624 12.7029 4.50902 13.0049 5.02223 13.1549C5.25738 13.224 5.50683 13.2576 5.76331 13.2576C6.29863 13.2576 6.86335 13.1097 7.38853 12.8237L12.1768 10.2367L14.5655 14.3045C14.6357 14.4237 14.7639 14.4969 14.9026 14.4969H20.1991V19.6121C20.1991 19.8262 20.3739 20 20.5893 20C20.8047 20 20.9795 19.8262 20.9795 19.6121V14.2287C20.9914 14.191 21 14.1514 21 14.1093ZM3.25421 11.1632L1.82668 11.846L0.911584 9.96366L2.31232 9.29216L3.29063 11.1502C3.2784 11.1544 3.26591 11.1575 3.25421 11.1632ZM7.01448 12.1429C6.42583 12.463 5.76357 12.5631 5.24255 12.4108C5.02639 12.3477 4.73506 12.2098 4.57561 11.9177L2.17212 7.33273L13.8761 1.1139C14.4653 0.794305 15.1278 0.694756 15.6478 0.84757C15.864 0.910919 16.1558 1.04951 16.3192 1.34893L18.0971 4.59707C18.4532 5.25073 17.9358 6.24415 16.9666 6.76646L7.01448 12.1429Z" fill="black"/>
</svg>
