<svg width="17" height="20" viewBox="0 0 17 20" fill="none" xmlns="http://www.w3.org/2000/svg">
<path d="M12.4576 4.76965V1.05882C12.4576 0.475059 11.9443 0 11.3136 0H1.14407C0.513305 0 0 0.475059 0 1.05882V18.9412C0 19.5249 0.513305 20 1.14407 20H11.3136C11.9443 20 12.4576 19.5249 12.4576 18.9412V10.5852C13.1832 9.91741 13.9187 9.23459 14.3095 8.85529C14.7557 8.42235 15.0008 7.83835 15 7.21082C14.9982 5.89647 13.8669 4.82282 12.4576 4.76965ZM1.14407 0.705882H11.3136C11.5238 0.705882 11.6949 0.864235 11.6949 1.05882V2.35294H0.762712V1.05882C0.762712 0.864235 0.933813 0.705882 1.14407 0.705882ZM11.3136 19.2941H1.14407C0.933813 19.2941 0.762712 19.1358 0.762712 18.9412V16.7059H11.6949V18.9412C11.6949 19.1358 11.5238 19.2941 11.3136 19.2941ZM11.6949 16H0.762712V3.05882H11.6949V4.84094C11.0675 4.98941 10.5221 5.34706 10.1629 5.83976C9.67932 5.18824 8.86958 4.77459 7.98127 4.77365C7.98 4.77365 7.97898 4.77365 7.97797 4.77365C7.27169 4.77365 6.60839 5.02776 6.10983 5.48894C5.61178 5.94988 5.33771 6.56306 5.33873 7.21529C5.33949 7.83977 5.58229 8.42024 6.02212 8.84918C6.95746 9.76141 9.78966 12.3205 9.90991 12.4289C9.98415 12.496 10.0803 12.5294 10.1764 12.5294C10.273 12.5294 10.3696 12.4955 10.4436 12.4282C10.4563 12.4167 11.0029 11.9198 11.6952 11.2856V16H11.6949ZM13.7573 8.36823C12.9989 9.10447 10.9167 11.0061 10.1753 11.6819C9.42991 11.0066 7.33398 9.10329 6.57534 8.36329C6.27025 8.06565 6.10195 7.65741 6.10144 7.21412C6.10093 6.75082 6.29542 6.31529 6.64907 5.988C7.00347 5.66 7.47534 5.47929 7.97797 5.47929C7.97873 5.47929 7.97949 5.47929 7.98025 5.47929C8.82941 5.48024 9.57712 6.01059 9.79856 6.76894C9.84356 6.92329 9.99127 7.028 10.1685 7.02965C10.3416 7.02894 10.4921 6.92071 10.5356 6.76565C10.7504 6.00282 11.4958 5.47035 12.3493 5.47035C12.3501 5.47035 12.3508 5.47035 12.3516 5.47035C13.3902 5.47153 14.236 6.25247 14.2373 7.21153C14.2378 7.65671 14.0675 8.06729 13.7573 8.36823Z" fill="black"/>
<path d="M16.4188 5.18559C16.3049 5.00659 16.0537 4.94684 15.8592 5.05159C15.6642 5.15634 15.5988 5.38609 15.7131 5.56483C16.019 6.04383 16.181 6.59182 16.1819 7.14981C16.1829 7.95455 15.871 8.69904 15.3037 9.24653C15.0073 9.53252 14.5938 9.92027 14.118 10.3618C13.9592 10.509 13.9609 10.7465 14.1218 10.892C14.2014 10.9638 14.3053 11 14.4092 11C14.5148 11 14.62 10.963 14.7002 10.8885C15.1805 10.443 15.5974 10.0515 15.8966 9.76302C16.6095 9.07553 17.0014 8.14704 17 7.14881C16.9992 6.45807 16.7982 5.77908 16.4188 5.18559Z" fill="black"/>
</svg>
