<svg width="17" height="17" viewBox="0 0 17 17" fill="none" xmlns="http://www.w3.org/2000/svg">
<path d="M11.4812 6.05784L5.11847 10.5002C4.99205 10.5928 4.94991 10.7779 5.07633 10.8889C5.13953 10.963 5.22381 11 5.32915 11C5.39236 11 5.47663 10.9815 5.51877 10.9445L11.8815 6.50208C12.0079 6.40953 12.0501 6.22443 11.9237 6.11337C11.8183 5.9838 11.6287 5.96529 11.4812 6.05784Z" fill="black"/>
<path d="M6.99873 8C7.05139 8 7.10406 8 7.15673 7.98037C7.69658 7.86261 8.07842 7.09716 7.98625 6.27282C7.94675 5.88028 7.80191 5.52699 7.59124 5.29147C7.38057 5.05595 7.11723 4.95781 6.85389 5.01669C6.59055 5.07557 6.35354 5.29147 6.19554 5.6055C6.03753 5.91954 5.9717 6.31208 6.0112 6.70462C6.0902 7.47007 6.52471 8 6.99873 8ZM6.90656 5.62513C6.93289 5.62513 6.97239 5.6055 6.99873 5.6055C7.2884 5.6055 7.55174 5.91954 7.59124 6.37096C7.64391 6.86163 7.42007 7.31305 7.09089 7.39156C6.76172 7.47007 6.45888 7.13641 6.40621 6.64574C6.35354 6.15506 6.59055 5.70364 6.90656 5.62513Z" fill="black"/>
<path d="M10 9C9.44737 9 9 9.67105 9 10.5C9 11.3289 9.44737 12 10 12C10.5526 12 11 11.3289 11 10.5C10.9868 9.67105 10.5395 9 10 9ZM10 11.3882C9.67105 11.3882 9.39474 10.9737 9.39474 10.4803C9.39474 9.98684 9.67105 9.57237 10 9.57237C10.3289 9.57237 10.6053 9.98684 10.6053 10.4803C10.5921 10.9934 10.3289 11.3882 10 11.3882Z" fill="black"/>
<path d="M16.9813 8.5C16.9813 8.48148 17 8.44444 17 8.42593C17 7.62963 16.1603 7.22222 15.4325 6.87037C14.91 6.61111 14.3502 6.33333 14.2009 6C14.0516 5.64815 14.2569 5.07407 14.4621 4.53704C14.742 3.77778 15.022 3 14.4995 2.48148C13.9769 1.96296 13.2305 2.14815 12.4841 2.31482C11.9616 2.42593 11.4204 2.55556 11.0659 2.40741C10.7113 2.25926 10.4127 1.7963 10.1328 1.35185C9.72228 0.722222 9.27442 0 8.49067 0C7.70692 0 7.25906 0.722222 6.86718 1.37037C6.58727 1.83333 6.30735 2.2963 5.9528 2.44444C5.59824 2.59259 5.03842 2.46296 4.51592 2.33333C3.76948 2.14815 3.00439 1.96296 2.50055 2.46296C1.97805 2.98148 2.2393 3.75926 2.48189 4.51852C2.6685 5.07407 2.83644 5.62963 2.68716 6C2.53787 6.35185 2.01537 6.61111 1.51153 6.87037C0.802415 7.24074 0 7.64815 0 8.42593C0 8.44444 -1.80744e-08 8.48148 0.0186608 8.5C0.0186608 8.51852 0 8.55556 0 8.57407C0 9.35185 0.802415 9.77778 1.51153 10.1296C2.01537 10.3889 2.53787 10.6481 2.68716 11C2.83644 11.3519 2.64984 11.9259 2.48189 12.4815C2.2393 13.2407 1.97805 14.0185 2.50055 14.537C3.02305 15.0556 3.78815 14.8519 4.51592 14.6667C5.03842 14.537 5.59824 14.4074 5.9528 14.5556C6.30735 14.7037 6.58727 15.1667 6.86718 15.6296C7.25906 16.2778 7.70692 17 8.49067 17C9.27442 17 9.74094 16.2778 10.1328 15.6481C10.4127 15.2037 10.7113 14.7407 11.0659 14.5926C11.4391 14.4444 11.9616 14.5556 12.4841 14.6852C13.2119 14.8519 13.9769 15.037 14.4995 14.5185C15.022 14 14.742 13.2222 14.4621 12.463C14.2569 11.9074 14.0516 11.3519 14.2009 11C14.3502 10.6481 14.8913 10.3889 15.4325 10.1296C16.1603 9.75926 17 9.35185 17 8.57407C17 8.53704 16.9813 8.51852 16.9813 8.5ZM15.1712 9.62963C14.5554 9.94444 13.9023 10.2593 13.6784 10.7963C13.4358 11.3519 13.697 12.0185 13.921 12.6667C14.1449 13.2778 14.3688 13.8704 14.0889 14.1296C13.7903 14.4259 13.2119 14.2963 12.596 14.1481C11.9802 14 11.3644 13.8704 10.8233 14.0926C10.3008 14.3148 9.96487 14.8333 9.64764 15.3519C9.29308 15.9074 8.95719 16.4444 8.47201 16.4444C8.00549 16.4444 7.66959 15.9074 7.31504 15.3333C6.9978 14.7963 6.66191 14.2593 6.13941 14.037C5.59824 13.8148 4.96378 13.963 4.34797 14.1296C3.73216 14.2778 3.15368 14.4259 2.8551 14.1481C2.57519 13.8704 2.7618 13.2778 2.96707 12.6667C3.17234 12.0185 3.39627 11.3519 3.15368 10.8148C2.92975 10.2778 2.31394 9.96296 1.71679 9.66667C1.10099 9.35185 0.522503 9.05556 0.522503 8.59259C0.522503 8.57407 0.522503 8.53704 0.503842 8.51852C0.503842 8.5 0.522503 8.46296 0.522503 8.44444C0.522503 8 1.10099 7.7037 1.71679 7.37037C2.31394 7.07407 2.92975 6.75926 3.15368 6.22222C3.37761 5.66667 3.17234 5 2.96707 4.37037C2.7618 3.74074 2.57519 3.14815 2.8551 2.88889C3.15368 2.59259 3.73216 2.74074 4.34797 2.90741C4.96378 3.05556 5.59824 3.22222 6.13941 3C6.66191 2.77778 6.9978 2.24074 7.31504 1.7037C7.66959 1.12963 7.98683 0.592593 8.47201 0.592593C8.95719 0.592593 9.29308 1.12963 9.64764 1.68519C9.98353 2.2037 10.3194 2.72222 10.8233 2.94444C11.3644 3.16667 11.9802 3.01852 12.596 2.88889C13.2119 2.74074 13.7903 2.61111 14.0889 2.90741C14.3688 3.16667 14.1449 3.75926 13.921 4.37037C13.6784 5.01852 13.4358 5.68518 13.6784 6.24074C13.9023 6.77778 14.5554 7.09259 15.1712 7.40741C15.8244 7.72222 16.4215 8.03704 16.4215 8.48148C16.4215 8.5 16.4215 8.53704 16.4402 8.55556C16.4402 8.57407 16.4215 8.61111 16.4215 8.62963C16.4402 9 15.8244 9.31482 15.1712 9.62963Z" fill="black"/>
</svg>
