<svg width="15" height="21" viewBox="0 0 15 21" fill="none" xmlns="http://www.w3.org/2000/svg">
<path d="M7.5 16C6.66 16 6 16.697 6 17.5152C6 17.9091 6.15 18.303 6.45 18.5758C6.72 18.8485 7.11 19 7.5 19C8.34 19 9 18.303 9 17.4848C9 16.6667 8.34 16 7.5 16ZM7.53 18.1212C7.38 18.1212 7.23 18.0606 7.11 17.9394C6.99 17.8182 6.93 17.6667 6.93 17.5152C6.93 17.1818 7.2 16.9091 7.53 16.9091C7.86 16.9091 8.13 17.1818 8.13 17.5152C8.13 17.8485 7.86 18.1212 7.53 18.1212Z" fill="black"/>
<path d="M10.6209 2H4.37906C4.1769 2 4 2.23333 4 2.5C4 2.76667 4.1769 3 4.37906 3H10.6209C10.8231 3 11 2.76667 11 2.5C11 2.23333 10.8231 2 10.6209 2Z" fill="black"/>
<path d="M12.603 0H2.39703C1.08731 0 0 1.05738 0 2.36066V18.6393C0 19.9426 1.0626 21 2.39703 21H12.603C13.9127 21 15 19.9426 15 18.6393V2.36066C15 1.05738 13.9374 0 12.603 0ZM14.2586 18.6393C14.2586 19.5492 13.5173 20.2623 12.603 20.2623H2.39703C1.4827 20.2623 0.741351 19.5246 0.741351 18.6393V2.36066C0.741351 1.45082 1.4827 0.737705 2.39703 0.737705H12.603C13.5173 0.737705 14.2586 1.47541 14.2586 2.36066V18.6393Z" fill="black"/>
</svg>
