<svg width="17" height="15" viewBox="0 0 17 15" fill="none" xmlns="http://www.w3.org/2000/svg">
<path d="M0.304878 4C0.473374 4 0.609756 3.86696 0.609756 3.7026V0.594796H3.69512C3.86362 0.594796 4 0.46176 4 0.297398C4 0.133036 3.86362 0 3.69512 0H0.304878C0.136382 0 0 0.133036 0 0.297398V3.7026C0 3.86696 0.136382 4 0.304878 4Z" fill="black"/>
<path d="M16.7713 0H14.2287C14.1024 0 14 0.133036 14 0.297398C14 0.46176 14.1024 0.594796 14.2287 0.594796H16.5427V3.7026C16.5427 3.86696 16.6451 4 16.7713 4C16.8976 4 17 3.86696 17 3.7026V0.297398C17 0.133036 16.8976 0 16.7713 0Z" fill="black"/>
<path d="M16.7713 11C16.6451 11 16.5427 11.1332 16.5427 11.2974V14.4052H14.2287C14.1024 14.4052 14 14.5384 14 14.7026C14 14.8668 14.1024 15 14.2287 15H16.7713C16.8976 15 17 14.8668 17 14.7026V11.2974C17 11.1332 16.8976 11 16.7713 11Z" fill="black"/>
<path d="M3.69512 14.4052H0.609756V11.2974C0.609756 11.1332 0.473374 11 0.304878 11C0.136382 11 0 11.1332 0 11.2974V14.7026C0 14.8668 0.136382 15 0.304878 15H3.69512C3.86362 15 4 14.8668 4 14.7026C4 14.5384 3.86362 14.4052 3.69512 14.4052Z" fill="black"/>
<path d="M8.57379 12.952C8.57442 12.9516 8.57526 12.9514 8.57609 12.9511L8.57735 12.9503L14.86 9.06889C14.9474 9.01489 15 8.924 15 8.8265V5.42948C15 5.42948 15 5.42948 15 5.42929C15 5.42909 15 5.4289 15 5.4289C15 5.42851 15 5.42851 15 5.42832C14.9996 5.35548 14.9705 5.28926 14.9227 5.23818C14.9135 5.22827 14.9034 5.21895 14.8925 5.21021C14.881 5.20089 14.8688 5.19234 14.8556 5.18458L9.77139 2.04877C9.66578 1.98371 9.52852 1.98371 9.4229 2.04897L3.14548 5.92784C3.11153 5.94784 3.08115 5.97426 3.05684 6.00649C3.05453 6.0096 3.05244 6.01271 3.05013 6.01582C3.01534 6.06573 2.999 6.12205 3.00005 6.1776V9.57093C3.00005 9.66843 3.05265 9.75952 3.14024 9.81351L8.2276 12.9513C8.22865 12.9518 8.2297 12.952 8.23075 12.9526C8.25275 12.9658 8.27685 12.9757 8.30221 12.9837C8.30849 12.9856 8.31457 12.9876 8.32086 12.9891C8.34684 12.9955 8.37366 13 8.40174 13C8.42982 13 8.45665 12.9955 8.48263 12.9889C8.48892 12.9874 8.49521 12.9854 8.50149 12.9835C8.52706 12.9755 8.55158 12.9654 8.57379 12.952ZM14.3713 8.67074L8.71587 12.1645V9.4678L14.3711 5.97367V8.67074H14.3713ZM9.59746 2.64132L14.1186 5.42968L8.40153 8.96187L3.88123 6.17352L9.59746 2.64132ZM3.6285 6.71752L8.08741 9.468V12.1649L3.6285 9.41498V6.71752Z" fill="black"/>
</svg>
