<svg width="21" height="14" viewBox="0 0 21 14" fill="none" xmlns="http://www.w3.org/2000/svg">
<path d="M20.6565 6.91417H18.8809V3.80954C18.8809 3.61298 18.7272 3.45388 18.5377 3.45388H12.9766V0.355655C12.9766 0.159096 12.8228 0 12.6334 0H0.343261C0.153552 0 0 0.159096 0 0.355655V12.0176C0 12.2139 0.153552 12.3732 0.343261 12.3732H3.21246C3.33146 13.2901 4.08938 14 5.00611 14C5.92285 14 6.68077 13.2901 6.79977 12.3732H12.6334H14.8499C14.9689 13.2901 15.7273 14 16.6449 14C17.5626 14 18.321 13.2901 18.4402 12.3732H20.6567C20.8462 12.3732 21 12.2139 21 12.0176V7.26982C20.9998 7.07326 20.846 6.91417 20.6565 6.91417ZM5.00611 13.2887C4.38573 13.2887 3.8809 12.7654 3.8809 12.1221C3.8809 11.4789 4.38573 10.9556 5.00611 10.9556C5.6265 10.9556 6.13132 11.4789 6.13132 12.1221C6.13132 12.7654 5.62673 13.2887 5.00611 13.2887ZM5.00611 10.2443C4.16055 10.2443 3.45068 10.8487 3.25182 11.6619H0.686521V0.71131H12.2901V3.80954V7.26982V11.6617H6.76063C6.56177 10.8487 5.85168 10.2443 5.00611 10.2443ZM16.6449 13.2887C16.0236 13.2887 15.5184 12.7654 15.5184 12.1221C15.5184 11.4789 16.0236 10.9556 16.6449 10.9556C17.2662 10.9556 17.7717 11.4789 17.7717 12.1221C17.7717 12.7654 17.266 13.2887 16.6449 13.2887ZM20.3133 11.6617H18.4008C18.2017 10.8484 17.4912 10.244 16.6449 10.244C15.7987 10.244 15.0881 10.8484 14.8893 11.6617H12.9769V7.26982V4.16519H18.1946V7.26982C18.1946 7.46614 18.3484 7.62548 18.5379 7.62548H20.3135V11.6617H20.3133Z" fill="black"/>
</svg>
