<svg width="16" height="15" viewBox="0 0 16 15" fill="none" xmlns="http://www.w3.org/2000/svg">
<path d="M15.7054 2.46215H12.9337C12.8215 1.08264 11.8335 0 10.6346 0H5.36516C4.16633 0 3.17827 1.08264 3.06631 2.46215H0.294648C0.131806 2.46215 0 2.58736 0 2.74205V14.7201C0 14.8746 0.131806 15 0.294648 15H15.7054C15.868 15 16 14.8746 16 14.7201V2.74205C16 2.58755 15.868 2.46215 15.7054 2.46215ZM5.36516 0.559792H10.6346C11.5131 0.559792 12.2385 1.3922 12.3418 2.46215H3.65816C3.76129 1.39202 4.48691 0.559792 5.36516 0.559792ZM15.4107 14.4402H0.589297V3.02194H15.4107V14.4402Z" fill="black"/>
</svg>
