<svg width="20" height="33" viewBox="0 0 20 33" fill="none" xmlns="http://www.w3.org/2000/svg">
<path d="M12.5192 23.5765L17.946 15.0491C17.9637 15.0215 17.9785 14.9925 17.9901 14.9625C18.9272 13.4691 19.422 11.7631 19.422 10.0214C19.422 4.79636 15.0721 0.54541 9.7253 0.54541C4.37854 0.54541 0.028232 4.79636 0.028232 10.0214C0.028232 11.7635 0.523745 13.4702 1.46156 14.9646C1.47242 14.9908 1.48509 15.0162 1.50029 15.041L6.73231 23.5977C2.67085 24.1587 0 25.7908 0 27.7705C0 30.2235 4.26561 32.1445 9.71082 32.1445C15.156 32.1445 19.4216 30.2232 19.4216 27.7705C19.422 25.7816 16.6266 24.1131 12.5192 23.5765ZM2.4363 14.4867C1.57123 13.1412 1.11409 11.5972 1.11409 10.0214C1.11409 5.3814 4.97684 1.60655 9.7253 1.60655C14.4734 1.60655 18.3361 5.3814 18.3361 10.0214C18.3361 11.5979 17.879 13.1419 17.0143 14.4867C16.9962 14.515 16.9814 14.5444 16.9694 14.5748L11.2361 23.5829C11.1499 23.712 11.1329 23.7413 11.0276 23.9104L9.57979 26.1855L2.4848 14.5822C2.47213 14.5493 2.45585 14.5171 2.4363 14.4867ZM9.71118 31.0834C4.62828 31.0834 1.08622 29.3371 1.08622 27.7705C1.08622 26.3486 3.75381 25.0087 7.34184 24.5938L9.10455 27.4769C9.20191 27.6357 9.37637 27.7337 9.56567 27.7351C9.56712 27.7351 9.56893 27.7351 9.57038 27.7351C9.75787 27.7351 9.93233 27.6403 10.0315 27.4847L11.8847 24.5729C15.5299 24.9588 18.3358 26.3326 18.3358 27.7705C18.3361 29.3375 14.7941 31.0834 9.71118 31.0834Z" fill="#0D2A73"/>
<path d="M13.2371 10.0215C13.2371 8.12181 11.6554 6.57617 9.71132 6.57617C7.76728 6.57617 6.18555 8.12181 6.18555 10.0215C6.18555 11.9212 7.76728 13.4668 9.71132 13.4668C11.6554 13.4668 13.2371 11.9212 13.2371 10.0215ZM7.2714 10.0215C7.2714 8.70681 8.36594 7.63725 9.71132 7.63725C11.0567 7.63725 12.1512 8.70681 12.1512 10.0215C12.1512 11.3362 11.0571 12.4057 9.71132 12.4057C8.36558 12.4057 7.2714 11.3362 7.2714 10.0215Z" fill="#0D2A73"/>
</svg>
