<svg width="32" height="36" viewBox="0 0 32 36" fill="none" xmlns="http://www.w3.org/2000/svg">
<path d="M15.8983 19.8114C7.13191 19.8114 0 26.7809 0 35.3476V35.9615H31.7965V35.3476C31.7965 26.7809 24.6646 19.8114 15.8983 19.8114ZM21.6876 22.2095L16.1009 26.2133L10.1286 22.2009C11.9003 21.4553 13.8501 21.0391 15.8983 21.0391C17.9539 21.0391 19.9104 21.4585 21.6876 22.2095ZM1.26968 34.7338C1.49498 29.542 4.56575 25.0593 8.99247 22.7353L8.90076 22.8655L16.124 27.7185L22.9112 22.8548L22.8338 22.7517C27.2442 25.0802 30.302 29.5538 30.5268 34.7342L1.26968 34.7338Z" fill="white"/>
<path d="M15.6317 18.1184C20.6678 18.1184 24.765 14.1146 24.765 9.19365C24.765 4.27272 20.6678 0.26886 15.6317 0.26886C10.596 0.26886 6.49878 4.27272 6.49878 9.19365C6.49878 14.1146 10.596 18.1184 15.6317 18.1184ZM15.6317 1.49654C18.9793 1.49654 21.8382 3.55125 22.9769 6.43547C22.587 6.22881 22.131 5.96486 21.703 5.71646C19.9467 4.69668 18.7364 4.03209 17.9265 4.10125C16.352 4.23261 15.3976 4.82272 14.3867 5.44678C13.8281 5.79176 13.2502 6.14902 12.5257 6.44448L12.3268 6.5255C10.784 7.15571 9.79323 7.55839 7.89704 7.76177C8.58676 4.19988 11.7899 1.49654 15.6317 1.49654ZM7.76471 9.00909C10.0189 8.79711 11.1488 8.33714 12.8117 7.65783L13.0098 7.5768C13.8322 7.24165 14.4838 6.83897 15.0584 6.48417C15.9742 5.91862 16.7649 5.43001 18.0337 5.32443C18.5145 5.28801 20.1037 6.21613 21.061 6.77186C22.0154 7.32595 22.842 7.80392 23.3977 7.95902C23.4647 8.3621 23.5087 8.77256 23.5087 9.19406C23.5087 13.4385 19.9751 16.8912 15.6317 16.8912C11.2882 16.8912 7.75508 13.4381 7.75508 9.19406C7.75508 9.13145 7.76346 9.07088 7.76471 9.00909Z" fill="white"/>
</svg>
